<?xml version="1.0" encoding="utf-8"?>
<svg version="1.1" viewBox="0 0 1028 1106" xmlns="http://www.w3.org/2000/svg" xmlns:bx="https://boxy-svg.com">
  <defs>
    <bx:export>
      <bx:file format="svg" href="#object-0"/>
      <bx:file format="svg" href="#object-1" path="Untitled 2.svg"/>
      <bx:file format="svg" href="#object-2" path="Untitled 3.svg"/>
    </bx:export>
  </defs>
  <path d="m158.82 235.43c-3.126 2.947-9.461 8.513-14.078 12.369s-10.609 9.748-13.317 13.093c-2.707 3.345-8.24 8.9-12.295 12.344-4.055 3.445-9.454 8.963-11.998 12.263s-7.664 9.334-11.377 13.409c-6.752 7.41-6.752 7.41-6.752 20.246 0 15.804-8.796 5.765 104.07 118.78 96.629 96.756 103.4 104.4 101.51 114.49-1.098 5.852-11.55 20.372-22.007 30.573-5.356 5.225-23.314 23.147-39.906 39.828-158.47 159.31-142.02 141.28-144.07 157.93-1.51 12.25-1.479 12.362 5.451 19.715 2.605 2.764 7.598 8.596 11.095 12.96 3.497 4.363 9.603 10.663 13.57 14 3.966 3.336 9.452 8.826 12.189 12.199 2.738 3.374 7.143 7.865 9.788 9.98 2.646 2.116 8.991 7.793 14.099 12.617 9.346 8.825 27.042 12.522 35.831 7.485 2.944-1.688 21.393-18.775 29.318-27.154 3.61-3.817 9.263-9.442 12.563-12.5 3.3-3.059 8.7-8.464 12-12.012 3.3-3.549 8.7-8.933 12-11.965 3.3-3.033 8.781-8.455 12.18-12.049 6.752-7.14 6.407-6.79 20.82-21.132 5.5-5.473 10.99-10.953 12.199-12.177 14.331-14.505 72.4-72.303 76.02-75.667 2.63-2.442 7.931-7.821 11.781-11.954 3.85-4.132 9.25-9.559 12-12.059s8.825-8.565 13.5-13.478c4.675-4.912 10.3-10.519 12.5-12.46s6.7-6.45 10-10.019 8.654-8.987 11.898-12.039c19.553-18.397 38.854-38.614 41.103-43.052 7.753-15.3 8.708-19.562 5.885-26.276-6.759-16.077-7.477-17-33.763-43.391-13.818-13.873-25.857-25.977-26.754-26.897-0.896-0.92-6.591-6.612-12.655-12.648s-11.405-11.361-11.87-11.832c-0.464-0.472-5.569-5.588-11.344-11.369-5.775-5.782-11.175-11.217-12-12.078s-6.225-6.285-12-12.053-11.947-11.942-13.715-13.721c-8.443-8.491-45.468-45.572-48.058-48.13-3.827-3.78-20.421-20.32-22.845-22.77-1.035-1.046-6.382-6.399-11.882-11.894s-11.35-11.359-13-13.032c-1.65-1.672-13.012-12.892-25.25-24.933s-22.25-22.305-22.25-22.809c0-0.503-3.488-3.631-7.75-6.951-4.262-3.319-10-8.361-12.75-11.203-10.353-10.701-29.733-11.961-39.683-2.58m328.68 527.51c-12.021 0.943-18.622 6.457-26.562 22.187-5.687 11.264-4.878 70.215 1.123 81.876 2.419 4.701 9.255 11.513 14.861 14.809 7.49 4.403 458.09 4.214 471.08-0.197 24.599-8.358 25.319-10.137 25.074-61.932-0.19-40.047-3.681-46.884-28.201-55.223-7.03-2.391-428.41-3.791-457.37-1.52" fill="#d0d0d0" fill-rule="evenodd" style="stroke-linecap: round; stroke-miterlimit: 3.32;" id="object-0"/>
  <path d="m0 553c0 553 0 553 514.25 552.75s514.25-0.251 514.5-553 0.251-552.75-514.25-552.75-514.5 0-514.5 553m0.496 0.499c0 304.15 0.115 428.72 0.254 276.83s0.139-400.74 0-553-0.254-27.982-0.254 276.17m158.32-318.07c-3.126 2.947-9.461 8.513-14.078 12.369s-10.609 9.748-13.317 13.093c-2.707 3.345-8.24 8.9-12.295 12.344-4.055 3.445-9.454 8.963-11.998 12.263s-7.664 9.334-11.377 13.409c-6.752 7.41-6.752 7.41-6.752 20.246 0 15.804-8.796 5.765 104.07 118.78 96.629 96.756 103.4 104.4 101.51 114.49-1.098 5.852-11.55 20.372-22.007 30.573-5.356 5.225-23.314 23.147-39.906 39.828-158.47 159.31-142.02 141.28-144.07 157.93-1.51 12.25-1.479 12.362 5.451 19.715 2.605 2.764 7.598 8.596 11.095 12.96 3.497 4.363 9.603 10.663 13.57 14 3.966 3.336 9.452 8.826 12.189 12.199 2.738 3.374 7.143 7.865 9.788 9.98 2.646 2.116 8.991 7.793 14.099 12.617 9.346 8.825 27.042 12.522 35.831 7.485 2.944-1.688 21.393-18.775 29.318-27.154 3.61-3.817 9.263-9.442 12.563-12.5 3.3-3.059 8.7-8.464 12-12.012 3.3-3.549 8.7-8.933 12-11.965 3.3-3.033 8.781-8.455 12.18-12.049 6.752-7.14 6.407-6.79 20.82-21.132 5.5-5.473 10.99-10.953 12.199-12.177 14.331-14.505 72.4-72.303 76.02-75.667 2.63-2.442 7.931-7.821 11.781-11.954 3.85-4.132 9.25-9.559 12-12.059s8.825-8.565 13.5-13.478c4.675-4.912 10.3-10.519 12.5-12.46s6.7-6.45 10-10.019 8.654-8.987 11.898-12.039c19.553-18.397 38.854-38.614 41.103-43.052 7.753-15.3 8.708-19.562 5.885-26.276-6.759-16.077-7.477-17-33.763-43.391-13.818-13.873-25.857-25.977-26.754-26.897-0.896-0.92-6.591-6.612-12.655-12.648s-11.405-11.361-11.87-11.832c-0.464-0.472-5.569-5.588-11.344-11.369-5.775-5.782-11.175-11.217-12-12.078s-6.225-6.285-12-12.053-11.947-11.942-13.715-13.721c-8.443-8.491-45.468-45.572-48.058-48.13-3.827-3.78-20.421-20.32-22.845-22.77-1.035-1.046-6.382-6.399-11.882-11.894s-11.35-11.359-13-13.032c-1.65-1.672-13.012-12.892-25.25-24.933s-22.25-22.305-22.25-22.809c0-0.503-3.488-3.631-7.75-6.951-4.262-3.319-10-8.361-12.75-11.203-10.353-10.701-29.733-11.961-39.683-2.58m328.68 527.51c-12.021 0.943-18.622 6.457-26.562 22.187-5.687 11.264-4.878 70.215 1.123 81.876 2.419 4.701 9.255 11.513 14.861 14.809 7.49 4.403 458.09 4.214 471.08-0.197 24.599-8.358 25.319-10.137 25.074-61.932-0.19-40.047-3.681-46.884-28.201-55.223-7.03-2.391-428.41-3.791-457.37-1.52" fill="#272727" fill-rule="evenodd" id="object-1"/>
  <rect x="428.129" y="733.674" width="570.839" height="182.046" style="fill: rgb(39, 39, 39); fill-rule: nonzero; paint-order: fill markers; stroke: rgba(126, 55, 55, 0); stroke-width: 0px; stroke-miterlimit: 1;" id="object-2">
    <animate attributeName="visibility" values="hidden;visible" begin="0.03s" dur="2s" fill="freeze" repeatCount="indefinite" calcMode="discrete" keyTimes="0; 0.5"/>
  </rect>
</svg>
