<?xml version="1.0" standalone="no"?>
<!DOCTYPE svg PUBLIC "-//W3C//DTD SVG 20010904//EN"
 "http://www.w3.org/TR/2001/REC-SVG-20010904/DTD/svg10.dtd">
<svg version="1.0" xmlns="http://www.w3.org/2000/svg"
 width="100.000000pt" height="100.000000pt" viewBox="0 0 100.000000 100.000000"
 preserveAspectRatio="xMidYMid meet">
<metadata>
Created by potrace 1.14, written by Peter Selinger 2001-2017
</metadata>
<g transform="translate(0.000000,100.000000) scale(0.100000,-0.100000)"
fill="#000000" stroke="none">
<path d="M20 500 l0 -500 475 0 475 0 0 500 0 500 -475 0 -475 0 0 -500z m335
150 l140 -140 -143 -142 -142 -143 -42 43 -43 42 93 93 c50 51 92 99 92 107 0
8 -41 56 -92 107 l-92 93 39 40 c21 22 42 40 45 40 3 0 68 -63 145 -140z m468
-327 l68 -6 -3 -46 -3 -46 -215 0 -215 0 -3 47 c-2 38 0 47 15 51 28 7 280 8
356 0z"/>
</g>
</svg>
